<svg width="51" height="50" viewBox="0 0 51 50" fill="none" xmlns="http://www.w3.org/2000/svg">
<path d="M25.4702 0C28.9267 0 32.1746 0.655542 35.2139 1.96663C38.2533 3.27771 40.9052 5.06555 43.1698 7.33015C45.4344 9.59476 47.2223 12.2368 48.5334 15.2563C49.8445 18.2757 50.5 21.5137 50.5 24.9702C50.5 28.4267 49.8445 31.6746 48.5334 34.7139C47.2223 37.7533 45.4344 40.4052 43.1698 42.6698C40.9052 44.9344 38.2533 46.7223 35.2139 48.0334C32.1746 49.3445 28.9267 50 25.4702 50C22.0137 50 18.7757 49.3445 15.7563 48.0334C12.7368 46.7223 10.0948 44.9344 7.83015 42.6698C5.56555 40.4052 3.77771 37.7533 2.46663 34.7139C1.15554 31.6746 0.5 28.4267 0.5 24.9702C0.5 21.5137 1.15554 18.2757 2.46663 15.2563C3.77771 12.2368 5.56555 9.59476 7.83015 7.33015C10.0948 5.06555 12.7368 3.27771 15.7563 1.96663C18.7757 0.655542 22.0137 0 25.4702 0ZM34.8862 10.9058H29.5822C28.5493 10.9058 27.5957 11.0846 26.7217 11.4422C25.8476 11.7998 25.0828 12.2765 24.4273 12.8725C23.7718 13.4684 23.2652 14.1438 22.9076 14.8987C22.5501 15.6536 22.3713 16.4084 22.3713 17.1633V20.3218H17.6633V26.5197H22.3713V39.0346H28.6287V26.5197H33.2771V20.3218H28.6287V18.7128C28.6287 18.236 28.8174 17.8586 29.1949 17.5805C29.5723 17.3023 29.9001 17.1633 30.1782 17.1633H34.8862V10.9058Z" fill="#1E1C1C"/>
</svg>
