<svg width="59" height="50" viewBox="0 0 59 50" fill="none" xmlns="http://www.w3.org/2000/svg">
<g filter="url(#filter0_d_85_155)">
<path d="M54.5 5.52621C53.0215 7.67675 51.3078 9.42406 49.3589 10.7681V12.1794C49.3589 15.5397 48.7204 18.9503 47.4436 22.4113C46.1667 25.8723 44.3017 28.9973 41.8488 31.7863C39.3958 34.5753 36.3548 36.8602 32.7258 38.6411C29.0968 40.422 24.9301 41.3125 20.2258 41.3125C17.2688 41.3125 14.4798 40.9093 11.8589 40.1028C9.2379 39.2964 6.78495 38.1539 4.5 36.6754C4.90323 36.7426 5.30645 36.793 5.70968 36.8266C6.1129 36.8602 6.51613 36.877 6.91935 36.877C9.33871 36.877 11.6405 36.4738 13.8246 35.6673C16.0087 34.8609 17.9745 33.7856 19.7218 32.4415C17.4368 32.3743 15.4375 31.6855 13.7238 30.375C12.0101 29.0645 10.8172 27.3676 10.1452 25.2843C10.4812 25.4187 10.8004 25.4859 11.1028 25.4859H12.0605C13.0013 25.4859 13.875 25.3851 14.6815 25.1835C12.3293 24.6458 10.3804 23.453 8.83468 21.6048C7.28898 19.7567 6.51613 17.5894 6.51613 15.1028V15.002C7.25538 15.338 7.99462 15.6237 8.73387 15.8589C9.47312 16.0941 10.2796 16.2117 11.1532 16.2117C9.80914 15.2708 8.71707 14.0612 7.87702 12.5827C7.03696 11.1042 6.61694 9.49126 6.61694 7.74395C6.61694 5.86223 7.08737 4.14852 8.02823 2.60282C10.582 5.69422 13.6734 8.19758 17.3024 10.1129C20.9315 12.0282 24.8629 13.0867 29.0968 13.2883C28.8952 12.4819 28.7944 11.709 28.7944 10.9698C28.7944 9.55847 29.0632 8.23118 29.6008 6.9879C30.1384 5.74462 30.8777 4.65255 31.8185 3.71169C32.7594 2.77083 33.8515 2.03159 35.0948 1.49395C36.338 0.956317 37.6653 0.6875 39.0766 0.6875C40.5551 0.6875 41.9328 0.973118 43.2097 1.54435C44.4866 2.11559 45.5954 2.90524 46.5363 3.91331C47.746 3.71169 48.8884 3.39247 49.9637 2.95565C51.039 2.51882 52.0806 1.99798 53.0887 1.39315C52.2823 3.8797 50.7702 5.79503 48.5524 7.13911C50.703 6.80309 52.6855 6.26546 54.5 5.52621Z" fill="#1E1C1C"/>
</g>
<defs>
<filter id="filter0_d_85_155" x="0.5" y="0.6875" width="58" height="48.625" filterUnits="userSpaceOnUse" color-interpolation-filters="sRGB">
<feFlood flood-opacity="0" result="BackgroundImageFix"/>
<feColorMatrix in="SourceAlpha" type="matrix" values="0 0 0 0 0 0 0 0 0 0 0 0 0 0 0 0 0 0 127 0" result="hardAlpha"/>
<feOffset dy="4"/>
<feGaussianBlur stdDeviation="2"/>
<feComposite in2="hardAlpha" operator="out"/>
<feColorMatrix type="matrix" values="0 0 0 0 0 0 0 0 0 0 0 0 0 0 0 0 0 0 0.25 0"/>
<feBlend mode="normal" in2="BackgroundImageFix" result="effect1_dropShadow_85_155"/>
<feBlend mode="normal" in="SourceGraphic" in2="effect1_dropShadow_85_155" result="shape"/>
</filter>
</defs>
</svg>
