<svg width="51" height="50" viewBox="0 0 51 50" fill="none" xmlns="http://www.w3.org/2000/svg">
<path d="M25.2312 30.5257C24.4745 30.5257 23.7676 30.3863 23.1105 30.1075C22.4534 29.8288 21.8759 29.4405 21.3781 28.9427C20.8803 28.4448 20.492 27.8574 20.2133 27.1804C19.9345 26.5034 19.7951 25.7865 19.7951 25.0299C19.7951 24.2732 19.9345 23.5663 20.2133 22.9092C20.492 22.2521 20.8803 21.6746 21.3781 21.1768C21.8759 20.679 22.4534 20.2907 23.1105 20.0119C23.7676 19.7332 24.4745 19.5938 25.2312 19.5938C26.7445 19.5938 28.0289 20.1215 29.0842 21.1768C30.1396 22.2322 30.6673 23.5165 30.6673 25.0299C30.6673 25.7865 30.5279 26.5034 30.2491 27.1804C29.9703 27.8574 29.582 28.4448 29.0842 28.9427C28.5864 29.4405 28.009 29.8288 27.3519 30.1075C26.6947 30.3863 25.9879 30.5257 25.2312 30.5257ZM33.9528 25.0299C33.9528 24.6714 33.9329 24.3031 33.8931 23.9247C33.8532 23.5464 33.7935 23.1979 33.7139 22.8793H36.1631V34.8865C36.1631 35.2051 36.0635 35.464 35.8644 35.6631C35.6653 35.8622 35.4064 35.9618 35.0878 35.9618H15.3746C15.056 35.9618 14.7971 35.8622 14.598 35.6631C14.3988 35.464 14.2993 35.2051 14.2993 34.8865V22.8793H16.7485C16.6689 23.1979 16.6091 23.5464 16.5693 23.9247C16.5295 24.3031 16.5096 24.6714 16.5096 25.0299C16.5096 26.2246 16.7386 27.3596 17.1965 28.4349C17.6545 29.5102 18.2718 30.446 19.0484 31.2425C19.825 32.039 20.7509 32.6663 21.8262 33.1243C22.9014 33.5822 24.0364 33.8112 25.2312 33.8112C26.4259 33.8112 27.5609 33.5822 28.6362 33.1243C29.7115 32.6663 30.6374 32.039 31.414 31.2425C32.1906 30.446 32.8078 29.5102 33.2658 28.4349C33.7238 27.3596 33.9528 26.2246 33.9528 25.0299ZM25.4701 0C28.9349 0 32.1806 0.657109 35.2073 1.97133C38.234 3.28554 40.8823 5.0677 43.1523 7.3178C45.4223 9.5679 47.2145 12.2063 48.5287 15.233C49.8429 18.2597 50.5 21.5054 50.5 24.9701C50.5 28.4349 49.8429 31.6806 48.5287 34.7073C47.2145 37.734 45.4223 40.3823 43.1523 42.6523C40.8823 44.9223 38.234 46.7145 35.2073 48.0287C32.1806 49.3429 28.9349 50 25.4701 50C22.0054 50 18.7597 49.3429 15.733 48.0287C12.7063 46.7145 10.0679 44.9223 7.8178 42.6523C5.5677 40.3823 3.78554 37.734 2.47133 34.7073C1.15711 31.6806 0.5 28.4349 0.5 24.9701C0.5 21.5054 1.15711 18.2597 2.47133 15.233C3.78554 12.2063 5.5677 9.5679 7.8178 7.3178C10.0679 5.0677 12.7063 3.28554 15.733 1.97133C18.7597 0.657109 22.0054 0 25.4701 0ZM39.4486 14.098C39.4486 13.182 39.13 12.4054 38.4928 11.7682C37.8556 11.131 37.0791 10.8124 36.1631 10.8124H14.2993C13.3833 10.8124 12.6067 11.131 11.9695 11.7682C11.3323 12.4054 11.0137 13.182 11.0137 14.098V35.9618C11.0137 36.8777 11.3323 37.6543 11.9695 38.2915C12.6067 38.9287 13.3833 39.2473 14.2993 39.2473H36.1631C37.0791 39.2473 37.8556 38.9287 38.4928 38.2915C39.13 37.6543 39.4486 36.8777 39.4486 35.9618V14.098ZM35.0878 14.098C35.4064 14.098 35.6653 14.2075 35.8644 14.4265C36.0635 14.6456 36.1631 14.9144 36.1631 15.233V18.5185C36.1631 18.8371 36.0635 19.096 35.8644 19.2951C35.6653 19.4942 35.4064 19.5938 35.0878 19.5938H31.8023C31.4837 19.5938 31.2149 19.4942 30.9958 19.2951C30.7768 19.096 30.6673 18.8371 30.6673 18.5185V15.233C30.6673 14.9144 30.7768 14.6456 30.9958 14.4265C31.2149 14.2075 31.4837 14.098 31.8023 14.098H35.0878Z" fill="#1E1C1C"/>
</svg>
